<?xml version="1.0" encoding="UTF-8"?>
<svg id="Layer_1" data-name="Layer 1" xmlns="http://www.w3.org/2000/svg" xmlns:xlink="http://www.w3.org/1999/xlink" viewBox="0 0 368.9 80.9">
  <defs>
    <style>
      .cls-1 {
        fill: url(#linear-gradient-2);
      }

      .cls-2 {
        fill: #fbaf1b;
      }

      .cls-3 {
        clip-path: url(#clippath-1);
      }

      .cls-4 {
        fill: #009a4e;
      }

      .cls-5 {
        clip-path: url(#clippath);
      }

      .cls-6 {
        fill: #16afe6;
      }

      .cls-7 {
        fill: none;
      }

      .cls-8 {
        fill: #63c3ae;
      }

      .cls-9 {
        fill: url(#linear-gradient);
      }

      .cls-10 {
        fill: #a7ce3b;
      }

      .cls-11 {
        fill: #034ea2;
      }

      .cls-12 {
        fill: #231f20;
      }
    </style>
    <clipPath id="clippath">
      <path id="SVGID" class="cls-7" d="M82,5.99l-12.09,31.52,7.55-2.96,12.91,36.15c1.36,3.8,4.95,6.33,8.98,6.33h20.28L93.54,6.07c-.99-2.69-3.39-4.04-5.79-4.04s-4.74,1.31-5.75,3.95"/>
    </clipPath>
    <linearGradient id="linear-gradient" x1="-111.18" y1="459.32" x2="-109.27" y2="459.32" gradientTransform="translate(18119.85 -4285.99) rotate(-90) scale(39.24 -39.24)" gradientUnits="userSpaceOnUse">
      <stop offset="0" stop-color="#fff"/>
      <stop offset="1" stop-color="#231f20"/>
    </linearGradient>
    <clipPath id="clippath-1">
      <path id="SVGID-2" data-name="SVGID" class="cls-7" d="M58.39,0c-2.48,0-4.7,1.52-5.59,3.83l-2.78,7.16h3.87c3.79,0,6.87,3.07,6.87,6.87v13.74c0,3.79-3.07,6.86-6.87,6.86h-13.74c-.26,0-.52-.02-.78-.04l-2.83,7.28c2.58,.32,4.57,2.51,4.57,5.17v9.67c0,2.88-2.33,5.21-5.21,5.21h-7.15l-4.39,11.3h20.65c3.8,0,7.21-2.33,8.58-5.87,6.4-16.47,24.15-62.16,25.74-66.17,1.94-4.9,5.05-5,5.05-5h-26.01Z"/>
    </clipPath>
    <linearGradient id="linear-gradient-2" x1="-111.2" y1="459.86" x2="-109.29" y2="459.86" gradientTransform="translate(18590.79 -4405.34) rotate(-90) scale(40.31 -40.31)" gradientUnits="userSpaceOnUse">
      <stop offset="0" stop-color="#005dac"/>
      <stop offset="1" stop-color="#008fd5"/>
    </linearGradient>
  </defs>
  <g>
    <g class="cls-5">
      <rect class="cls-9" x="69.91" y="2.04" width="49.72" height="75"/>
    </g>
    <path class="cls-2" d="M53.48,36.04h-12.94c-2.68,0-4.85-2.17-4.85-4.85v-12.94c0-2.68,2.17-4.85,4.85-4.85h12.94c2.68,0,4.85,2.17,4.85,4.85v12.94c0,2.68-2.17,4.85-4.85,4.85"/>
    <path class="cls-8" d="M25.68,38.23h-8.24c-2.05,0-3.7-1.66-3.7-3.7v-8.24c0-2.04,1.66-3.7,3.7-3.7h8.24c2.05,0,3.7,1.66,3.7,3.7v8.24c0,2.05-1.66,3.7-3.7,3.7"/>
    <path class="cls-6" d="M36.07,63.52h-10c-1.56,0-2.82-1.27-2.82-2.82v-10c0-1.56,1.26-2.83,2.82-2.83h10c1.56,0,2.82,1.27,2.82,2.83v10c0,1.56-1.27,2.82-2.82,2.82"/>
    <g class="cls-3">
      <rect class="cls-1" x="24.37" width="60.03" height="77.04"/>
    </g>
    <path class="cls-2" d="M13.94,55.13H6.18c-.98,0-1.79-.8-1.79-1.79v-7.75c0-.99,.8-1.79,1.79-1.79h7.75c.99,0,1.79,.8,1.79,1.79v7.75c0,.99-.8,1.79-1.79,1.79"/>
    <path class="cls-10" d="M7.41,22.01H1.79c-.99,0-1.79-.8-1.79-1.79v-5.62c0-.99,.8-1.79,1.79-1.79H7.41c.99,0,1.79,.8,1.79,1.79v5.62c0,.99-.8,1.79-1.79,1.79"/>
  </g>
  <g>
    <g>
      <path class="cls-11" d="M291.92,20.76h6.47c.61,0,1.11,.5,1.11,1.11v5.96h-7.58v-7.07h0Z"/>
      <path class="cls-11" d="M280.57,20.76h6.28c.72,0,1.3,.58,1.3,1.3V61.33h-7.58V20.76h0Z"/>
      <rect class="cls-11" x="291.92" y="30.77" width="7.58" height="30.56"/>
      <path class="cls-11" d="M323.8,61.33v-18.91c0-5.15-3.43-6.98-6.38-6.98s-6.34,1.83-6.34,6.98v18.91h-7.82v-18.63c0-4.27,1.36-7.75,4.15-10.64,2.76-2.85,6.05-4.24,10.05-4.24,4.62,0,8.21,1.6,10.95,4.9,2.13,2.55,3.21,6.31,3.21,11.17v17.43h-7.82Z"/>
      <path class="cls-11" d="M268.98,61.33v-18.91c0-5.15-3.43-6.98-6.38-6.98s-6.34,1.83-6.34,6.98v18.91h-7.82v-18.63c0-4.27,1.36-7.75,4.15-10.64,2.76-2.85,6.05-4.24,10.05-4.24,4.62,0,8.21,1.6,10.95,4.9,2.13,2.55,3.21,6.31,3.21,11.17v17.43h-7.82Z"/>
      <path class="cls-11" d="M352.31,61.33c-2.4,0-4.63-.4-6.63-1.2-1.99-.79-3.81-2-5.43-3.6-1.62-1.59-2.84-3.4-3.64-5.36-.81-1.97-1.21-4.17-1.21-6.54s.41-4.56,1.23-6.53c.81-1.97,2.05-3.79,3.69-5.41,1.64-1.62,3.48-2.85,5.47-3.65,2-.81,4.24-1.22,6.64-1.22s4.51,.4,6.45,1.19c1.93,.78,3.71,1.98,5.29,3.56,1.58,1.58,2.77,3.35,3.56,5.28,.79,1.94,1.18,4.1,1.18,6.43,0,.17,0,.39-.02,.65h-17.11c-.05-.34-.08-.67-.08-.97,0-.55,.06-1.1,.17-1.65h7.64l-.39-2.19c-.64-3.55-2.88-5.51-6.31-5.51-2.26,0-4.19,1-5.58,2.89-1.29,1.74-1.94,3.95-1.94,6.57s.63,4.95,1.87,6.7c1.36,1.92,3.27,2.94,5.51,2.94,1.27,0,2.5-.41,3.66-1.21l5.13,6.17c-1.14,.73-2.33,1.31-3.54,1.74-1.77,.62-3.65,.94-5.61,.94Z"/>
      <circle class="cls-4" cx="212.45" cy="54.19" r="6.09"/>
      <path class="cls-11" d="M242.42,30.27c-1.5-3.04-3.71-5.39-6.62-7.04-2.92-1.65-6.41-2.48-10.48-2.48-3,0-5.67,.47-8.03,1.4-2.36,.94-4.35,2.29-6,4.05-1.64,1.77-2.89,3.91-3.76,6.42-.87,2.52-1.3,5.28-1.3,8.3,0,2.67,.39,5.14,1.07,7.48,1.37-1.22,3.16-1.99,5.15-1.99,.94,0,1.83,.19,2.67,.5-.55-1.79-.83-3.78-.83-5.99s.28-4.21,.84-5.98c.56-1.78,1.33-3.23,2.3-4.38,.97-1.14,2.13-2.01,3.48-2.61,1.35-.6,2.81-.9,4.4-.9,2.23,0,4.21,.54,5.93,1.62,1.72,1.08,3.05,2.67,3.97,4.78,.93,2.11,1.39,4.59,1.39,7.47,0,3.1-.5,5.72-1.51,7.84-1.01,2.12-2.36,3.69-4.07,4.71-1.7,1.02-3.57,1.53-5.61,1.53-1.59,0-3.05-.29-4.38-.88-.31-.14-.59-.35-.89-.52,.01,.2,.06,.38,.06,.58,0,2.3-1.02,4.34-2.6,5.76,2.34,.89,4.94,1.38,7.86,1.38,3.09,0,5.83-.48,8.22-1.45,2.39-.96,4.41-2.35,6.05-4.18,1.64-1.82,2.87-3.97,3.69-6.45,.82-2.48,1.23-5.24,1.23-8.27,0-4.1-.75-7.68-2.25-10.72Z"/>
    </g>
    <polygon class="cls-11" points="182.55 14.66 173.16 24.59 181.44 24.59 181.44 61.33 190.26 61.33 190.26 24.59 190.26 18.79 190.26 14.66 182.55 14.66"/>
    <g>
      <path class="cls-12" d="M134.55,69.52c0,.19-.03,.3-.09,.35-.06,.05-.17,.07-.33,.07h-1.1c-.28,0-.44,.02-.48,.06-.04,.04-.06,.2-.06,.48v3.71c0,.54,.08,.93,.24,1.17,.16,.23,.37,.35,.61,.35,.14,0,.26-.02,.37-.06,.1-.04,.24-.11,.42-.22,.19-.17,.35-.26,.5-.26,.13,0,.19,.08,.19,.24,0,.34-.24,.7-.73,1.08-.49,.38-1.16,.58-2.02,.58s-1.4-.27-1.72-.8c-.32-.53-.48-1.05-.48-1.55v-4.55c0-.15-.12-.23-.37-.23-.2,.03-.34,.05-.44,.05-.29,0-.44-.11-.44-.33,0-.14,.35-.37,1.06-.69s1.31-.87,1.81-1.65c.22-.42,.45-.63,.68-.63,.2,0,.3,.16,.3,.48v1.37c0,.2,0,.31,.02,.35,.01,.04,.06,.06,.16,.06h1.46c.2,0,.32,.04,.36,.13,.04,.09,.06,.23,.06,.43Z"/>
      <path class="cls-12" d="M146.34,76.78c0,.27-.25,.4-.75,.4-.21,0-.57-.02-1.07-.06-.5-.04-.86-.06-1.05-.06-.24,0-.58,.02-1,.06s-.71,.06-.86,.06c-.41,0-.61-.13-.61-.4,0-.23,.18-.38,.55-.45,.37-.07,.55-.33,.55-.78v-4.39c0-.35-.12-.61-.36-.78-.24-.17-.53-.25-.88-.25-.43,0-.81,.1-1.14,.3s-.5,.44-.5,.73v4.39c0,.4,.21,.65,.62,.77s.62,.27,.62,.47c0,.15-.08,.26-.24,.31-.16,.06-.38,.09-.67,.09-.24,0-.61-.02-1.1-.06-.49-.04-.78-.06-.89-.06-.23,0-.57,.02-1.01,.06-.44,.04-.74,.06-.91,.06-.45,0-.68-.13-.68-.4,0-.23,.23-.38,.68-.45,.45-.07,.68-.33,.68-.78v-8.5c0-.39-.23-.63-.68-.7-.45-.07-.68-.2-.68-.4,0-.21,.36-.38,1.08-.52,.72-.14,1.18-.24,1.38-.3,.14-.02,.37-.1,.68-.22,.31-.12,.53-.18,.66-.18,.21,0,.31,.13,.31,.4v4.53c0,.12,.03,.17,.09,.17,.37-.26,.79-.48,1.27-.69,.48-.2,.98-.3,1.51-.3,1,0,1.75,.26,2.26,.78s.77,1.36,.77,2.51v3.41c0,.38,.23,.62,.68,.71,.45,.09,.68,.27,.68,.52Z"/>
      <path class="cls-12" d="M154.84,75c.04,.06,.05,.12,.05,.17,0,.37-.42,.78-1.26,1.22-.84,.44-1.63,.66-2.36,.66-1.1,0-2.12-.27-3.04-.82s-1.45-1.24-1.58-2.07c-.13-.84-.2-1.31-.2-1.43,0-1.04,.39-1.98,1.18-2.8,.79-.82,1.92-1.24,3.38-1.24,.74,0,1.49,.16,2.25,.47,.75,.31,1.22,.68,1.38,1.11,.17,.42,.27,.69,.3,.81s.04,.23,.04,.35c0,.2-.06,.36-.18,.5-.12,.13-.33,.2-.63,.2h-4.81c-.09,0-.14,.13-.14,.38,0,.66,.23,1.38,.71,2.15,.47,.77,1.16,1.16,2.08,1.16h.33c.39,0,.78-.1,1.14-.31,.37-.21,.74-.43,1.12-.66,.1,0,.19,.05,.24,.16Zm-3.17-3.71c.24-.05,.43-.15,.57-.3,.13-.15,.2-.32,.2-.52,0-.29-.14-.55-.42-.77-.28-.22-.67-.33-1.17-.33-.41,.06-.75,.29-1.03,.68-.28,.39-.42,.74-.42,1.04,0,.12,.02,.18,.07,.19,.02,.02,.14,.05,.34,.07s.4,.04,.6,.04c.56,0,.97-.04,1.25-.1Z"/>
      <path class="cls-12" d="M171.15,72.67c0,1.28-.48,2.35-1.45,3.22-.96,.87-2.08,1.31-3.36,1.31-.7,0-1.29-.08-1.78-.24-.42-.19-.83-.38-1.24-.58-.1,0-.27,.18-.5,.55-.23,.37-.38,.55-.46,.55-.19,0-.31-.03-.37-.08-.06-.05-.1-.12-.1-.22,.04-.19,.05-.32,.05-.4v-9.89c0-.34-.21-.53-.62-.58-.41-.05-.62-.17-.62-.38,0-.22,.24-.37,.73-.44,.49-.07,.85-.14,1.08-.21s.56-.19,.98-.37,.7-.26,.84-.26c.15,0,.27,.06,.36,.17,.09,.11,.13,.3,.13,.57v4.26c.41-.27,.82-.46,1.24-.59,.42-.13,.83-.19,1.24-.19,1.01,0,1.88,.35,2.61,1.06s1.14,1.62,1.24,2.73Zm-3.57-1.64c-.14-.31-.36-.55-.67-.71-.31-.16-.64-.24-.98-.24-.3,0-.55,.06-.75,.17-.2,.11-.31,.28-.35,.51v4.39c0,.45,.12,.8,.37,1.04,.24,.24,.54,.37,.91,.37,.41,0,.77-.16,1.1-.49,.33-.32,.57-.72,.74-1.18s.25-.95,.25-1.45c0-.43-.05-.85-.16-1.25s-.26-.79-.45-1.15Z"/>
      <path class="cls-12" d="M180.05,75c.03,.06,.05,.12,.05,.17,0,.37-.42,.78-1.26,1.22-.84,.44-1.63,.66-2.36,.66-1.1,0-2.12-.27-3.04-.82s-1.45-1.24-1.58-2.07c-.13-.84-.2-1.31-.2-1.43,0-1.04,.39-1.98,1.18-2.8,.79-.82,1.92-1.24,3.38-1.24,.74,0,1.49,.16,2.25,.47,.75,.31,1.22,.68,1.38,1.11,.17,.42,.27,.69,.3,.81,.03,.12,.04,.23,.04,.35,0,.2-.06,.36-.18,.5-.12,.13-.33,.2-.64,.2h-4.81c-.09,0-.14,.13-.14,.38,0,.66,.24,1.38,.71,2.15,.47,.77,1.16,1.16,2.08,1.16h.33c.39,0,.77-.1,1.14-.31,.37-.21,.74-.43,1.12-.66,.1,0,.19,.05,.24,.16Zm-3.17-3.71c.24-.05,.43-.15,.57-.3,.13-.15,.2-.32,.2-.52,0-.29-.14-.55-.42-.77s-.67-.33-1.17-.33c-.41,.06-.75,.29-1.03,.68s-.42,.74-.42,1.04c0,.12,.02,.18,.07,.19,.02,.02,.14,.05,.34,.07s.4,.04,.6,.04c.56,0,.98-.04,1.25-.1Z"/>
      <path class="cls-12" d="M188.01,74.03c0,1.08-.38,1.87-1.15,2.36-.77,.5-1.7,.75-2.8,.75-.85,0-1.6-.14-2.25-.41-.65-.27-.96-.58-.92-.93l.12-1.23c.05-.1,.1-.19,.16-.25,.06-.06,.13-.1,.21-.1,.12,0,.25,.07,.39,.22,.15,.14,.33,.4,.54,.76,.21,.36,.45,.65,.71,.86s.66,.31,1.19,.31h.37c.29,0,.6-.1,.92-.31s.49-.45,.49-.73c0-.17-.08-.34-.23-.5-.15-.16-.41-.33-.77-.5-.94-.28-1.84-.61-2.7-.98s-1.29-.97-1.29-1.77c-.06-.63,.24-1.23,.91-1.82,.66-.59,1.56-.88,2.7-.88,.16,0,.34,0,.52,.02,.19,.01,.5,.05,.93,.11,.44,.06,.8,.12,1.09,.18,.29,.06,.44,.31,.44,.75,0,.41-.03,.71-.09,.91-.06,.2-.21,.3-.45,.3-.13,0-.39-.28-.78-.83-.4-.55-.84-.83-1.34-.83h-.3c-.38,0-.7,.09-.94,.26-.24,.17-.37,.38-.37,.62,0,.33,.32,.6,.95,.83,.63,.23,1.35,.48,2.15,.75,1.06,.51,1.58,1.2,1.58,2.07Z"/>
      <path class="cls-12" d="M194.19,69.52c0,.19-.03,.3-.09,.35-.06,.05-.17,.07-.33,.07h-1.1c-.28,0-.44,.02-.48,.06s-.06,.2-.06,.48v3.71c0,.54,.08,.93,.24,1.17,.16,.23,.37,.35,.61,.35,.14,0,.26-.02,.37-.06,.1-.04,.24-.11,.42-.22,.19-.17,.35-.26,.51-.26,.13,0,.19,.08,.19,.24,0,.34-.24,.7-.73,1.08-.49,.38-1.16,.58-2.02,.58s-1.4-.27-1.71-.8c-.32-.53-.48-1.05-.48-1.55v-4.55c0-.15-.12-.23-.37-.23-.2,.03-.34,.05-.44,.05-.29,0-.43-.11-.43-.33,0-.14,.35-.37,1.06-.69s1.31-.87,1.81-1.65c.22-.42,.45-.63,.68-.63,.2,0,.3,.16,.3,.48v1.37c0,.2,0,.31,.02,.35,.01,.04,.06,.06,.16,.06h1.46c.2,0,.32,.04,.36,.13,.04,.09,.06,.23,.06,.43Z"/>
      <path class="cls-12" d="M205.84,76.79c0,.13-.09,.22-.26,.27-.17,.05-.42,.08-.73,.08-.2,0-.57-.01-1.11-.04-.55-.03-.85-.04-.92-.04-.19,0-.46,.01-.84,.04-.37,.03-.64,.04-.8,.04-.26,0-.46-.01-.6-.04-.14-.03-.22-.13-.22-.31,0-.25,.23-.39,.68-.42s.68-.2,.68-.54v-4.26c-.05-.35-.28-.56-.71-.63s-.64-.18-.64-.33,.29-.31,.87-.48,.99-.31,1.23-.43c.24-.12,.54-.33,.9-.65,.36-.31,.6-.47,.71-.47,.08,0,.14,.05,.19,.15,.05,.1,.07,.26,.07,.5v6.6c0,.27,.25,.42,.76,.47,.5,.05,.76,.21,.76,.49Zm-1.24-10.03c0,.46-.16,.83-.49,1.1s-.7,.4-1.13,.4-.78-.13-1.08-.39c-.3-.26-.45-.63-.45-1.11,0-.43,.16-.77,.49-1.02,.33-.25,.7-.37,1.13-.37s.78,.12,1.08,.36c.3,.24,.45,.58,.45,1.04Z"/>
      <path class="cls-12" d="M217.35,76.64c0,.19-.1,.31-.29,.37-.19,.06-.48,.1-.86,.1s-.73,0-.99-.02c-.27-.01-.51-.02-.73-.03-.15,0-.41,.01-.78,.03-.37,.02-.64,.04-.82,.04-.27,0-.48-.03-.64-.08-.16-.05-.23-.14-.23-.27,0-.29,.21-.48,.62-.57,.41-.09,.62-.35,.62-.78v-3.99c0-.42-.14-.74-.42-.96-.28-.22-.62-.33-1.03-.33-.45,0-.85,.12-1.19,.35-.34,.23-.51,.55-.51,.94v3.99c0,.49,.21,.78,.62,.87s.62,.26,.62,.49c0,.27-.23,.4-.7,.4-.05,0-.33-.02-.84-.06s-.92-.06-1.22-.06c-.24,0-.56,.02-.96,.06s-.66,.06-.78,.06c-.48,0-.71-.17-.71-.52,0-.19,.23-.31,.68-.38,.45-.07,.68-.31,.68-.71v-3.84c0-.45-.23-.7-.68-.75-.45-.05-.68-.16-.68-.35,0-.14,.36-.31,1.09-.51,.73-.2,1.28-.5,1.67-.89s.71-.58,.95-.58c.17,0,.26,.11,.26,.33v1.1c.49-.38,1.01-.67,1.56-.86s1.08-.29,1.59-.29c.75,0,1.38,.2,1.87,.59,.49,.39,.74,.95,.74,1.65v4.39c0,.4,.25,.63,.75,.7,.5,.07,.75,.2,.75,.4Z"/>
      <path class="cls-12" d="M222.97,69.52c0,.19-.03,.3-.09,.35-.06,.05-.17,.07-.33,.07h-1.1c-.28,0-.44,.02-.48,.06s-.06,.2-.06,.48v3.71c0,.54,.08,.93,.24,1.17,.16,.23,.37,.35,.61,.35,.14,0,.26-.02,.37-.06,.1-.04,.24-.11,.42-.22,.19-.17,.35-.26,.51-.26,.13,0,.19,.08,.19,.24,0,.34-.24,.7-.73,1.08-.49,.38-1.16,.58-2.02,.58s-1.4-.27-1.71-.8c-.32-.53-.48-1.05-.48-1.55v-4.55c0-.15-.12-.23-.37-.23-.2,.03-.34,.05-.44,.05-.29,0-.43-.11-.43-.33,0-.14,.35-.37,1.06-.69s1.31-.87,1.81-1.65c.22-.42,.45-.63,.68-.63,.2,0,.3,.16,.3,.48v1.37c0,.2,0,.31,.02,.35,.01,.04,.06,.06,.16,.06h1.46c.2,0,.32,.04,.36,.13,.04,.09,.06,.23,.06,.43Z"/>
      <path class="cls-12" d="M231.75,75c.04,.06,.05,.12,.05,.17,0,.37-.42,.78-1.26,1.22-.84,.44-1.63,.66-2.36,.66-1.1,0-2.12-.27-3.04-.82s-1.45-1.24-1.58-2.07c-.13-.84-.2-1.31-.2-1.43,0-1.04,.39-1.98,1.18-2.8,.79-.82,1.92-1.24,3.38-1.24,.74,0,1.49,.16,2.25,.47,.75,.31,1.22,.68,1.38,1.11,.17,.42,.27,.69,.3,.81s.04,.23,.04,.35c0,.2-.06,.36-.18,.5-.12,.13-.33,.2-.63,.2h-4.81c-.09,0-.14,.13-.14,.38,0,.66,.23,1.38,.71,2.15,.47,.77,1.16,1.16,2.08,1.16h.33c.39,0,.78-.1,1.14-.31,.37-.21,.74-.43,1.12-.66,.1,0,.19,.05,.24,.16Zm-3.17-3.71c.24-.05,.43-.15,.57-.3,.13-.15,.2-.32,.2-.52,0-.29-.14-.55-.42-.77-.28-.22-.67-.33-1.17-.33-.41,.06-.75,.29-1.03,.68-.28,.39-.42,.74-.42,1.04,0,.12,.02,.18,.07,.19,.02,.02,.14,.05,.34,.07s.4,.04,.6,.04c.56,0,.97-.04,1.25-.1Z"/>
      <path class="cls-12" d="M239.71,71.57c-.25,.15-.52,.23-.8,.23-.24,0-.46-.06-.65-.19s-.36-.3-.51-.51c-.15-.21-.35-.31-.61-.31-.17,0-.31,.06-.42,.19s-.16,.33-.16,.59v4.11c0,.39,.23,.63,.69,.7,.46,.07,.69,.2,.69,.4,0,.14-.07,.24-.22,.3-.14,.06-.34,.1-.58,.1-.22,0-.58-.02-1.09-.06s-.84-.06-1-.06c-.23,0-.57,.02-1.01,.06s-.74,.06-.91,.06c-.45,0-.68-.13-.68-.4,0-.2,.23-.34,.68-.43s.68-.31,.68-.66v-4.11c0-.28-.2-.45-.61-.52s-.61-.21-.61-.44c0-.19,.36-.36,1.09-.51,.72-.16,1.26-.4,1.61-.72,.35-.32,.58-.52,.69-.59s.22-.1,.32-.1c.17,0,.26,.14,.26,.42v1.1c.42-.35,.84-.64,1.25-.89,.42-.24,.82-.37,1.22-.37,.22,0,.45,.06,.69,.17s.42,.28,.56,.5c.13,.21,.2,.44,.2,.69,0,.56-.26,.98-.77,1.27Z"/>
      <path class="cls-12" d="M251.78,76.64c0,.19-.1,.31-.29,.37s-.48,.1-.86,.1-.73,0-.99-.02c-.27-.01-.51-.02-.73-.03-.15,0-.41,.01-.78,.03-.37,.02-.64,.04-.82,.04-.27,0-.48-.03-.64-.08-.16-.05-.24-.14-.24-.27,0-.29,.21-.48,.62-.57s.62-.35,.62-.78v-3.99c0-.42-.14-.74-.42-.96-.28-.22-.62-.33-1.03-.33-.45,0-.85,.12-1.19,.35-.34,.23-.51,.55-.51,.94v3.99c0,.49,.21,.78,.62,.87s.62,.26,.62,.49c0,.27-.23,.4-.7,.4-.05,0-.32-.02-.83-.06-.51-.04-.92-.06-1.22-.06-.24,0-.56,.02-.96,.06-.4,.04-.66,.06-.78,.06-.48,0-.71-.17-.71-.52,0-.19,.23-.31,.68-.38,.45-.07,.68-.31,.68-.71v-3.84c0-.45-.23-.7-.68-.75-.45-.05-.68-.16-.68-.35,0-.14,.36-.31,1.09-.51,.72-.2,1.28-.5,1.67-.89,.39-.39,.71-.58,.95-.58,.17,0,.26,.11,.26,.33v1.1c.49-.38,1.01-.67,1.56-.86,.55-.19,1.08-.29,1.59-.29,.75,0,1.38,.2,1.87,.59s.74,.95,.74,1.65v4.39c0,.4,.25,.63,.75,.7,.5,.07,.75,.2,.75,.4Z"/>
      <path class="cls-12" d="M260.27,75c.03,.06,.05,.12,.05,.17,0,.37-.42,.78-1.26,1.22-.84,.44-1.63,.66-2.36,.66-1.1,0-2.12-.27-3.04-.82s-1.45-1.24-1.58-2.07c-.13-.84-.2-1.31-.2-1.43,0-1.04,.39-1.98,1.18-2.8,.79-.82,1.92-1.24,3.38-1.24,.74,0,1.49,.16,2.25,.47,.75,.31,1.22,.68,1.38,1.11,.17,.42,.27,.69,.3,.81,.03,.12,.04,.23,.04,.35,0,.2-.06,.36-.18,.5-.12,.13-.33,.2-.64,.2h-4.81c-.09,0-.14,.13-.14,.38,0,.66,.24,1.38,.71,2.15,.47,.77,1.16,1.16,2.08,1.16h.33c.39,0,.77-.1,1.14-.31,.37-.21,.74-.43,1.12-.66,.1,0,.19,.05,.24,.16Zm-3.17-3.71c.24-.05,.43-.15,.57-.3,.13-.15,.2-.32,.2-.52,0-.29-.14-.55-.42-.77s-.67-.33-1.17-.33c-.41,.06-.75,.29-1.03,.68s-.42,.74-.42,1.04c0,.12,.02,.18,.07,.19,.02,.02,.14,.05,.34,.07s.4,.04,.6,.04c.56,0,.98-.04,1.25-.1Z"/>
      <path class="cls-12" d="M266.46,69.52c0,.19-.03,.3-.09,.35-.06,.05-.17,.07-.33,.07h-1.1c-.28,0-.44,.02-.48,.06-.04,.04-.06,.2-.06,.48v3.71c0,.54,.08,.93,.24,1.17,.16,.23,.37,.35,.61,.35,.14,0,.26-.02,.37-.06,.1-.04,.24-.11,.42-.22,.19-.17,.35-.26,.5-.26,.13,0,.19,.08,.19,.24,0,.34-.24,.7-.73,1.08-.49,.38-1.16,.58-2.02,.58s-1.4-.27-1.72-.8c-.32-.53-.48-1.05-.48-1.55v-4.55c0-.15-.12-.23-.37-.23-.2,.03-.34,.05-.44,.05-.29,0-.44-.11-.44-.33,0-.14,.35-.37,1.06-.69s1.31-.87,1.81-1.65c.22-.42,.45-.63,.68-.63,.2,0,.3,.16,.3,.48v1.37c0,.2,0,.31,.02,.35,.01,.04,.06,.06,.16,.06h1.46c.2,0,.32,.04,.36,.13,.04,.09,.06,.23,.06,.43Z"/>
      <path class="cls-12" d="M282.75,69.52c0,.22-.24,.35-.71,.4-.48,.05-.88,.42-1.2,1.11l-3.43,7.12c-.38,1.1-.64,1.84-.77,2.2-.13,.37-.46,.55-.97,.55h-.31c-.65,0-1.06-.1-1.24-.31-.17-.21-.26-.47-.26-.8-.04-.33,.04-.59,.22-.78,.18-.19,.54-.28,1.07-.28h.56c.07,0,.18-.02,.34-.05,.16-.04,.32-.17,.48-.4,.16-.23,.24-.5,.24-.8,0-.24-.06-.48-.17-.7l-3.29-6.44c-.08-.25-.34-.39-.78-.42-.44-.02-.64-.2-.59-.54,0-.1,.07-.18,.21-.22,.14-.04,.34-.06,.59-.06s.61,.02,1.11,.07c.5,.05,.82,.07,.97,.07,.26,0,.62-.02,1.1-.07,.48-.05,.81-.07,.99-.07,.49,0,.7,.13,.64,.4-.05,.2-.25,.33-.62,.4-.37,.07-.55,.17-.55,.31,0,.07,.02,.15,.07,.24l1.65,3.44c.07,.22,.14,.33,.23,.33,.05,0,.1-.06,.17-.19l1.52-3.43c.05-.11,.07-.21,.07-.3,0-.21-.24-.33-.72-.37s-.72-.18-.72-.44c0-.15,.06-.26,.18-.32,.12-.06,.29-.09,.51-.09,.12,0,.34,.02,.66,.07,.33,.05,.56,.07,.7,.07,.27-.02,.5-.04,.71-.06s.43-.03,.66-.03c.28,0,.46,.02,.55,.07,.09,.05,.13,.14,.13,.3Z"/>
      <path class="cls-12" d="M292.09,73.49c-.2,1.2-.76,2.12-1.68,2.78-.92,.66-1.99,.98-3.2,.98-1.32,0-2.46-.4-3.42-1.19-.96-.79-1.44-1.92-1.44-3.39,.15-1.2,.69-2.11,1.61-2.73s2-.94,3.23-.94c1.32,0,2.48,.35,3.46,1.04s1.48,1.64,1.48,2.82c0,.21-.02,.42-.05,.63Zm-2.75-.54c0-1.01-.23-1.81-.68-2.41-.45-.6-.97-.9-1.57-.9-.56,0-1.03,.27-1.42,.81-.39,.54-.58,1.33-.58,2.36,0,1.18,.21,2.11,.64,2.77,.43,.66,.94,.99,1.53,.99s1.06-.31,1.46-.94,.61-1.52,.61-2.68Z"/>
      <path class="cls-12" d="M302.78,76.38l-3.03,.82c-.14,.04-.24,0-.29-.08-.05-.09-.08-.22-.08-.39,0-.08,0-.19,.02-.34,.01-.14,.02-.23,.02-.27,0-.1-.02-.16-.07-.16-.45,.33-.94,.61-1.45,.86-.52,.25-1.04,.37-1.58,.37-.6,0-1.19-.22-1.75-.66s-.84-1.09-.84-1.97v-4.27c0-.37-.23-.57-.69-.59-.46-.02-.69-.19-.69-.51,0-.13,.08-.22,.23-.27,.15-.05,.35-.08,.61-.08,.15,0,.34,.01,.58,.04,.23,.03,.49,.05,.78,.07,.17,0,.41-.02,.71-.05,.3-.04,.51-.05,.61-.05,.19,0,.33,.04,.43,.12s.16,.21,.16,.4v5.21c0,.43,.12,.75,.37,.97,.24,.22,.55,.33,.92,.33s.71-.11,1.01-.33,.45-.5,.45-.84v-4.27c0-.43-.23-.67-.69-.72-.46-.05-.69-.22-.69-.52,0-.16,.09-.26,.28-.3,.19-.04,.39-.05,.63-.05,.16,0,.41,.02,.73,.05,.32,.03,.56,.05,.7,.05,.23,0,.44,0,.62-.02,.18-.01,.36-.02,.53-.03,.42,0,.63,.16,.63,.47v5.62c0,.27,.03,.43,.09,.49,.06,.06,.26,.12,.61,.19,.13,0,.23,.04,.31,.12,.08,.08,.12,.17,.12,.28,0,.15-.1,.25-.3,.3Z"/>
      <path class="cls-12" d="M316.87,76.1c-.29,.35-.72,.62-1.29,.83-.57,.2-1.18,.3-1.85,.3-.89,0-1.72-.17-2.49-.52-.77-.35-1.35-.87-1.76-1.56-.41-.69-.61-1.38-.61-2.08,0-1.18,.51-2.18,1.52-3,1.02-.82,2.35-1.23,4.01-1.23,.42,0,.88,.08,1.38,.24,.5,.16,.82,.31,.95,.44,.13,.13,.19,.29,.19,.46,0,.36-.08,.73-.25,1.12-.17,.39-.37,.58-.62,.58-.1,0-.2-.04-.3-.12-.45-.7-.83-1.22-1.13-1.58-.3-.36-.61-.52-.92-.47-.53,.08-1.01,.39-1.43,.93s-.63,1.23-.63,2.08c0,.75,.34,1.53,1.01,2.32,.67,.79,1.42,1.18,2.25,1.18,.26,0,.5-.04,.72-.11,.23-.08,.47-.21,.73-.4,.26-.19,.47-.29,.64-.29,.13,0,.19,.07,.19,.21,0,.16-.11,.38-.33,.66Z"/>
      <path class="cls-12" d="M326.74,75.42c.07,.34-.15,.69-.66,1.07-.51,.38-1.06,.57-1.65,.57h-.21c-.37,0-.67-.13-.89-.38-.19-.29-.37-.57-.56-.86-.41,.35-.86,.66-1.35,.95-.49,.28-1,.43-1.52,.43-.62,0-1.11-.17-1.48-.5-.37-.34-.56-.74-.56-1.22,0-.42,.16-.83,.48-1.24s.67-.69,1.06-.85c.39-.16,.95-.37,1.67-.61,.73-.24,1.25-.55,1.56-.92v-1.51c0-.23-.06-.42-.18-.57-.12-.14-.28-.22-.46-.22-.26,0-.52,.13-.79,.38-.27,.25-.49,.56-.65,.92-.16,.36-.45,.62-.86,.77-.41,.15-.79,.23-1.14,.23-.46,0-.68-.14-.68-.42,0-.09,.02-.19,.07-.28,.27-.72,.83-1.29,1.7-1.7,.86-.41,1.81-.62,2.85-.62,.83,0,1.52,.15,2.07,.44s.83,.74,.83,1.33v4.67c0,.3,.08,.45,.23,.45,.09,0,.27-.08,.52-.24,.25-.16,.41-.24,.45-.24,.09,0,.15,.05,.16,.16Zm-4.11-.84v-1.36c0-.33-.03-.49-.09-.49-.05,0-.11,.02-.19,.07l-.68,.42c-.41,.23-.73,.49-.98,.77-.25,.29-.38,.57-.38,.84,0,.16,.04,.31,.11,.44s.2,.23,.37,.3c.17,.07,.36,.1,.57,.1,.35,0,.65-.09,.9-.28,.25-.19,.38-.46,.38-.82Z"/>
      <path class="cls-12" d="M338.13,76.64c0,.19-.1,.31-.29,.37s-.48,.1-.86,.1-.73,0-.99-.02c-.27-.01-.51-.02-.73-.03-.15,0-.41,.01-.78,.03-.37,.02-.64,.04-.82,.04-.27,0-.48-.03-.64-.08-.16-.05-.24-.14-.24-.27,0-.29,.21-.48,.62-.57s.62-.35,.62-.78v-3.99c0-.42-.14-.74-.42-.96-.28-.22-.62-.33-1.03-.33-.45,0-.85,.12-1.19,.35-.34,.23-.51,.55-.51,.94v3.99c0,.49,.21,.78,.62,.87s.62,.26,.62,.49c0,.27-.23,.4-.7,.4-.05,0-.32-.02-.83-.06-.51-.04-.92-.06-1.22-.06-.24,0-.56,.02-.96,.06-.4,.04-.66,.06-.78,.06-.48,0-.71-.17-.71-.52,0-.19,.23-.31,.68-.38,.45-.07,.68-.31,.68-.71v-3.84c0-.45-.23-.7-.68-.75-.45-.05-.68-.16-.68-.35,0-.14,.36-.31,1.09-.51,.72-.2,1.28-.5,1.67-.89,.39-.39,.71-.58,.95-.58,.17,0,.26,.11,.26,.33v1.1c.49-.38,1.01-.67,1.56-.86,.55-.19,1.08-.29,1.59-.29,.75,0,1.38,.2,1.87,.59s.74,.95,.74,1.65v4.39c0,.4,.25,.63,.75,.7,.5,.07,.75,.2,.75,.4Z"/>
      <path class="cls-12" d="M353.05,69.93c0,.22-.03,.34-.09,.37-.06,.02-.16,.04-.31,.04h-.82c.31,.55,.47,1.04,.47,1.5,0,.58-.21,1.07-.62,1.46s-.85,.71-1.31,.93c-.46,.23-1.16,.35-2.09,.37-.93,.02-1.4,.11-1.4,.27-.03,.22,.12,.37,.47,.44,.35,.07,.85,.1,1.51,.1h1.69c.14,.02,.41,.05,.8,.1,.39,.04,.81,.27,1.24,.69,.43,.42,.64,.91,.64,1.49,0,.43-.11,.83-.34,1.21s-.57,.72-1.03,1.02c-.46,.3-1.03,.53-1.72,.68-.68,.15-1.41,.23-2.18,.23-1.1,0-2.05-.16-2.83-.47s-1.2-.64-1.24-.98c-.04-.34-.06-.56-.06-.68,0-.45,.21-.81,.64-1.08,.48-.19,.95-.37,1.43-.56,0-.13-.28-.39-.83-.78-.55-.39-.83-.68-.83-.86,.06-.33,.42-.58,1.08-.77s.99-.3,.99-.33c-.58-.19-1.09-.47-1.53-.86-.44-.39-.66-.93-.66-1.61,0-1.07,.41-1.85,1.22-2.35s1.78-.75,2.91-.75c.49,0,.96,.04,1.41,.13s.79,.18,1.01,.29,.42,.17,.61,.18c.19,.02,.36,.03,.52,.03h.82c.2,0,.31,.02,.35,.07,.04,.05,.05,.21,.05,.49Zm-2.73,9.74c.45-.26,.68-.56,.68-.9,0-.24-.13-.45-.38-.63-.26-.18-.59-.27-1.01-.27h-.24c-.53,0-1.01-.01-1.42-.04s-.81-.15-1.19-.37c-.22-.06-.41,0-.56,.17-.15,.17-.23,.41-.23,.7,0,.37,.13,.72,.38,1.04,.26,.32,.55,.52,.88,.6s.56,.13,.7,.16,.3,.04,.51,.04c.33,0,.62-.04,.9-.12,.27-.08,.6-.21,.98-.38Zm-.68-8.24c0-.65-.14-1.16-.43-1.53-.29-.37-.63-.56-1.04-.56-.35,0-.65,.16-.9,.48s-.38,.78-.38,1.38v.37c0,.7,.14,1.25,.43,1.67s.62,.63,1,.63c.36,0,.67-.21,.93-.64,.26-.42,.39-1.02,.39-1.8Z"/>
      <path class="cls-12" d="M361.83,75c.03,.06,.05,.12,.05,.17,0,.37-.42,.78-1.26,1.22-.84,.44-1.63,.66-2.36,.66-1.1,0-2.12-.27-3.04-.82s-1.45-1.24-1.58-2.07c-.13-.84-.2-1.31-.2-1.43,0-1.04,.39-1.98,1.18-2.8,.79-.82,1.92-1.24,3.38-1.24,.74,0,1.49,.16,2.25,.47,.75,.31,1.22,.68,1.38,1.11,.17,.42,.27,.69,.3,.81,.03,.12,.04,.23,.04,.35,0,.2-.06,.36-.18,.5-.12,.13-.33,.2-.64,.2h-4.81c-.09,0-.14,.13-.14,.38,0,.66,.24,1.38,.71,2.15,.47,.77,1.16,1.16,2.08,1.16h.33c.39,0,.77-.1,1.14-.31,.37-.21,.74-.43,1.12-.66,.1,0,.19,.05,.24,.16Zm-3.17-3.71c.24-.05,.43-.15,.57-.3,.13-.15,.2-.32,.2-.52,0-.29-.14-.55-.42-.77s-.67-.33-1.17-.33c-.41,.06-.75,.29-1.03,.68s-.42,.74-.42,1.04c0,.12,.02,.18,.07,.19,.02,.02,.14,.05,.34,.07s.4,.04,.6,.04c.56,0,.98-.04,1.25-.1Z"/>
      <path class="cls-12" d="M368.01,69.52c0,.19-.03,.3-.09,.35-.06,.05-.17,.07-.33,.07h-1.1c-.28,0-.44,.02-.48,.06-.04,.04-.06,.2-.06,.48v3.71c0,.54,.08,.93,.24,1.17,.16,.23,.37,.35,.61,.35,.14,0,.26-.02,.37-.06,.1-.04,.24-.11,.42-.22,.19-.17,.35-.26,.5-.26,.13,0,.19,.08,.19,.24,0,.34-.24,.7-.73,1.08-.49,.38-1.16,.58-2.02,.58s-1.4-.27-1.72-.8c-.32-.53-.48-1.05-.48-1.55v-4.55c0-.15-.12-.23-.37-.23-.2,.03-.34,.05-.44,.05-.29,0-.44-.11-.44-.33,0-.14,.35-.37,1.06-.69s1.31-.87,1.81-1.65c.22-.42,.45-.63,.68-.63,.2,0,.3,.16,.3,.48v1.37c0,.2,0,.31,.02,.35,.01,.04,.06,.06,.16,.06h1.46c.2,0,.32,.04,.36,.13,.04,.09,.06,.23,.06,.43Z"/>
    </g>
    <polygon class="cls-11" points="128.8 61.33 137.18 61.33 152.5 23.77 159.77 40.99 150.62 40.99 147.65 48.55 162.53 48.55 167.93 61.33 176.74 61.33 157.13 14.66 148.2 14.66 128.8 61.33"/>
  </g>
</svg>